<?xml version="1.0" standalone="no"?>
<!DOCTYPE svg PUBLIC "-//W3C//DTD SVG 20010904//EN"
 "http://www.w3.org/TR/2001/REC-SVG-20010904/DTD/svg10.dtd">
<svg version="1.0" xmlns="http://www.w3.org/2000/svg"
 width="450.000000pt" height="450.000000pt" viewBox="0 0 450.000000 450.000000"
 preserveAspectRatio="xMidYMid meet">
<metadata>
Created by potrace 1.11, written by Peter Selinger 2001-2013
</metadata>
<g transform="translate(0.000000,450.000000) scale(0.100000,-0.100000)"
fill="#000000" stroke="none">
<path d="M72 3678 c-17 -17 -15 -35 7 -57 19 -19 24 -51 36 -246 2 -38 7 -101
10 -140 7 -87 13 -164 20 -280 3 -49 8 -112 10 -140 2 -27 7 -86 10 -130 10
-146 16 -229 20 -290 6 -70 12 -167 20 -280 3 -44 8 -102 10 -130 2 -27 7 -95
10 -150 4 -55 8 -118 10 -140 2 -22 6 -80 9 -130 4 -49 9 -117 11 -150 2 -33
7 -96 10 -140 3 -44 8 -102 10 -130 17 -211 17 -251 1 -264 -19 -16 -21 -42
-4 -59 17 -17 45 -15 60 6 12 17 99 18 2021 17 1902 0 2009 -1 2018 -17 12
-22 42 -23 59 -3 10 12 10 21 1 41 -10 22 -16 25 -41 20 -26 -5 -51 8 -173 88
-78 51 -191 125 -252 164 -60 39 -114 75 -120 80 -5 4 -17 11 -25 15 -8 4 -75
46 -147 94 -73 49 -228 150 -345 226 -262 170 -572 372 -911 594 -141 92 -267
174 -280 181 -12 7 -89 57 -172 112 -82 54 -193 126 -245 160 -90 57 -367 239
-400 261 -16 10 -719 468 -1012 658 -114 75 -174 120 -171 128 12 32 -40 56
-65 31z"/>
</g>
</svg>
